<svg xmlns="http://www.w3.org/2000/svg" viewBox="0 0 96.35 100.42"><defs><style>.cls-1{fill:#fff;}.cls-2{fill:#e84343;}</style></defs><title>Asset 2</title><g id="Layer_2" data-name="Layer 2"><g id="Layer_1-2" data-name="Layer 1"><path class="cls-1" d="M44.14,50c0-1.26,0-2.53,0-3.8A5.89,5.89,0,0,0,37.86,40H18.55a6.32,6.32,0,0,0-1.31.11c-3.24.67-5,3-5,6.63q0,9.16,0,18.35a12.44,12.44,0,0,0,.19,2c.43,2.4,3,4.86,5.15,4.86,2.58,0,5.17-.09,7.76-.1,4.29,0,8.58,0,12.88,0A5.79,5.79,0,0,0,44,66.93a41.49,41.49,0,0,0,0-5.11H40.26c0,1.21,0,2.45,0,3.68a2.14,2.14,0,0,1-2.45,2.41q-9.54,0-19.07,0c-1.75,0-2.49-.74-2.49-2.48V46.36c0-1.76.7-2.44,2.49-2.44H37.8c1.7,0,2.4.68,2.45,2.38,0,1.23,0,2.46,0,3.66Z"/><path class="cls-1" d="M44.14,10c0-1.13-.06-2.29,0-3.44C44.4,2.59,41.4,0,37.61,0,31.38.09,25.14,0,18.9,0c-4.22,0-6.63,2.4-6.65,6.63,0,6.2,0,12.4,0,18.6,0,4.3,2.45,6.65,6.75,6.64l19.32-.08a5.47,5.47,0,0,0,5.6-4.47A33.48,33.48,0,0,0,44,21.87H40.38s-.08.09-.08.15c0,1.12,0,2.24,0,3.36,0,1.86-.68,2.58-2.52,2.59q-9.48,0-19,0c-1.92,0-2.54-.69-2.54-2.65V6.48c0-1.8.74-2.55,2.55-2.55q9.42,0,18.84,0c1.88,0,2.61.72,2.64,2.6,0,1.19,0,2.38,0,3.5Z"/><path class="cls-1" d="M52.25,61.82c0,1.35,0,2.7,0,4.05a5.9,5.9,0,0,0,5.93,5.95c1.43,0,2.87,0,4.3,0h16a4.43,4.43,0,0,0,2.09-.47,5.9,5.9,0,0,0,3.53-5.55q0-9.94,0-19.91a5.64,5.64,0,0,0-3-5.14c-2.25-1.27-4.69-.7-7-.74v3.91c1.23,0,2.42,0,3.61,0,1.81,0,2.47.67,2.48,2.45v19c0,1.84-.69,2.57-2.51,2.58q-9.54,0-19.07,0c-1.65,0-2.4-.79-2.42-2.45,0-1.23,0-2.46,0-3.64Z"/><path class="cls-1" d="M74.18,31.78c1.34,0,2.57,0,3.8,0,3.65-.06,6-2.37,6-6q0-9.84,0-19.67a5.7,5.7,0,0,0-5.86-6Q68.22,0,58.33.12a5.67,5.67,0,0,0-5.93,5,40,40,0,0,0,0,4.9c.67,0,1.26-.15,1.85-.14s1.17.09,1.87.16V6.65c0-2.05.74-2.79,2.83-2.79H77.5c2,0,2.72.74,2.72,2.76V25.09c0,2.33-.64,3-3,3h-3Z"/><path class="cls-1" d="M53.89,59.84a4,4,0,0,0,4.17-3.22,3.9,3.9,0,0,0-2.47-4.42A3.8,3.8,0,0,0,50.77,54a1.5,1.5,0,0,1-1.66,1,7.7,7.7,0,0,0-1.44,0,1.87,1.87,0,0,1-2.16-1.16,3.71,3.71,0,0,0-4.34-1.69,3.84,3.84,0,0,0-2.9,3.66,3.91,3.91,0,0,0,2.65,3.87,3.64,3.64,0,0,0,4.5-1.52,2.25,2.25,0,0,1,2.65-1.36,7.88,7.88,0,0,0,1.19,0,1.21,1.21,0,0,1,1.37.84A3.65,3.65,0,0,0,53.89,59.84Z"/><path class="cls-1" d="M64.22,41.64a4,4,0,0,0,7.66,1.69,3.78,3.78,0,0,0-1.7-4.76A1.81,1.81,0,0,1,69,36.45a4.31,4.31,0,0,0,0-1,2,2,0,0,1,1.23-2.35,3.63,3.63,0,0,0,1.64-4.36,4,4,0,0,0-3.57-2.74,3.88,3.88,0,0,0-3.79,2.6,3.48,3.48,0,0,0,1.28,4.25,2.59,2.59,0,0,1,1.39,2.92,4.87,4.87,0,0,0,0,1.08,1.38,1.38,0,0,1-.91,1.58A3.58,3.58,0,0,0,64.22,41.64Z"/><path class="cls-1" d="M58,16a3.72,3.72,0,0,0-2.61-3.74,3.5,3.5,0,0,0-4.31,1.41,2.36,2.36,0,0,1-2.77,1.35,6.49,6.49,0,0,0-1.08,0,1.31,1.31,0,0,1-1.55-.9,3.87,3.87,0,0,0-4.43-2A4,4,0,0,0,41,19.74a3.72,3.72,0,0,0,4.46-1.66,2,2,0,0,1,2.28-1.18,8.19,8.19,0,0,0,1.31,0,1.57,1.57,0,0,1,1.79,1,3.73,3.73,0,0,0,4.41,1.81A3.8,3.8,0,0,0,58,16Z"/><path class="cls-1" d="M62.24,40c-1.58,0-3.13-.08-4.68,0-1,.07-2.21.12-2.79.72a8.8,8.8,0,0,0-2.26,3.76A28.73,28.73,0,0,0,52.19,50h4c0-1.23,0-2.46,0-3.69,0-1.63.72-2.33,2.33-2.37,1.27,0,2.53,0,3.76,0Z"/><path class="cls-1" d="M62.16,31.64V28.11c-.58,0-1.17,0-1.76,0s-1.28,0-1.91-.06c-1.74-.15-2.41-.87-2.43-2.61,0-1.15,0-2.3,0-3.45H52.44C51.45,30.08,54.54,32.62,62.16,31.64Z"/><path d="M44.14,50H40.26c0-1.2,0-2.43,0-3.66,0-1.7-.75-2.38-2.45-2.38H18.73c-1.79,0-2.49.68-2.49,2.44V65.43c0,1.74.74,2.48,2.49,2.48q9.52,0,19.07,0a2.14,2.14,0,0,0,2.45-2.41c0-1.23,0-2.47,0-3.68h3.82a41.49,41.49,0,0,1,0,5.11,5.79,5.79,0,0,1-5.81,4.89c-4.3,0-8.59,0-12.88,0-2.59,0-5.18.09-7.76.1-2.13,0-4.72-2.46-5.15-4.86a12.44,12.44,0,0,1-.19-2q0-9.18,0-18.35c0-3.68,1.75-6,5-6.63A6.32,6.32,0,0,1,18.55,40H37.86a5.89,5.89,0,0,1,6.27,6.2C44.15,47.43,44.14,48.7,44.14,50Z"/><path d="M44.14,10H40.28c0-1.12,0-2.31,0-3.5,0-1.88-.76-2.6-2.64-2.6q-9.42,0-18.84,0c-1.81,0-2.55.75-2.55,2.55V25.31c0,2,.62,2.65,2.54,2.65q9.48,0,19,0c1.84,0,2.5-.73,2.52-2.59,0-1.12,0-2.24,0-3.36,0-.06.07-.13.08-.15H44a33.48,33.48,0,0,1-.06,5.48,5.47,5.47,0,0,1-5.6,4.47L19,31.9c-4.3,0-6.73-2.34-6.75-6.64,0-6.2,0-12.4,0-18.6C12.27,2.43,14.68,0,18.9,0c6.24,0,12.48.06,18.71,0,3.79,0,6.79,2.59,6.54,6.59C44.08,7.74,44.14,8.9,44.14,10Z"/><path d="M52.25,61.82h3.9c0,1.18,0,2.41,0,3.64,0,1.66.77,2.45,2.42,2.45q9.54,0,19.07,0c1.82,0,2.51-.74,2.51-2.58v-19c0-1.78-.67-2.43-2.48-2.45-1.19,0-2.38,0-3.61,0V40c2.35,0,4.79-.53,7,.74a5.64,5.64,0,0,1,3,5.14q.06,10,0,19.91a5.9,5.9,0,0,1-3.53,5.55,4.43,4.43,0,0,1-2.09.47h-16c-1.43,0-2.87,0-4.3,0a5.9,5.9,0,0,1-5.93-5.95C52.24,64.52,52.25,63.17,52.25,61.82Z"/><path class="cls-2" d="M74.18,31.78V28.1h3c2.35,0,3-.68,3-3V6.62c0-2-.72-2.76-2.72-2.76H58.91c-2.09,0-2.83.74-2.83,2.79V10c-.7-.07-1.29-.16-1.87-.16S53,10,52.36,10a40,40,0,0,1,0-4.9,5.67,5.67,0,0,1,5.93-5q9.9-.09,19.79,0a5.7,5.7,0,0,1,5.86,6q0,9.84,0,19.67c0,3.65-2.34,6-6,6C76.75,31.8,75.52,31.78,74.18,31.78Z"/><path d="M53.89,59.84a3.65,3.65,0,0,1-3.26-2.25,1.21,1.21,0,0,0-1.37-.84,7.88,7.88,0,0,1-1.19,0,2.25,2.25,0,0,0-2.65,1.36,3.64,3.64,0,0,1-4.5,1.52,3.91,3.91,0,0,1-2.65-3.87,3.84,3.84,0,0,1,2.9-3.66,3.71,3.71,0,0,1,4.34,1.69A1.87,1.87,0,0,0,47.67,55a7.7,7.7,0,0,1,1.44,0,1.5,1.5,0,0,0,1.66-1,3.8,3.8,0,0,1,4.82-1.77,3.9,3.9,0,0,1,2.47,4.42A4,4,0,0,1,53.89,59.84Z"/><path d="M48.57,16.92a7.06,7.06,0,0,1-.8,0,2,2,0,0,0-2.28,1.18A3.72,3.72,0,0,1,41,19.74a4,4,0,0,1,.25-7.62,3.87,3.87,0,0,1,4.43,2,1.31,1.31,0,0,0,1.55.9,6.49,6.49,0,0,1,1.08,0l.25,0"/><path class="cls-2" d="M48.59,15.08a2.27,2.27,0,0,0,2.52-1.37,3.5,3.5,0,0,1,4.31-1.41A3.72,3.72,0,0,1,58,16a3.8,3.8,0,0,1-2.75,3.65,3.73,3.73,0,0,1-4.41-1.81,1.57,1.57,0,0,0-1.79-1l-.51,0"/><path d="M62.24,40v3.93c-1.23,0-2.49,0-3.76,0-1.61,0-2.3.74-2.33,2.37,0,1.23,0,2.46,0,3.69h-4a28.73,28.73,0,0,1,.32-5.49,8.8,8.8,0,0,1,2.26-3.76c.58-.6,1.83-.65,2.79-.72C59.11,39.9,60.66,40,62.24,40Z"/><path d="M62.16,31.64c-7.62,1-10.71-1.56-9.72-9.65h3.62c0,1.15,0,2.3,0,3.45,0,1.74.69,2.46,2.43,2.61.63.06,1.27.05,1.91.06s1.18,0,1.76,0Z"/><path d="M69.14,35.56a7,7,0,0,1,0,.8,2,2,0,0,0,1.16,2.29,3.72,3.72,0,0,1,1.61,4.48,3.92,3.92,0,0,1-4.05,2.72,4,4,0,0,1-3.57-3.05,3.87,3.87,0,0,1,2.1-4.41,1.31,1.31,0,0,0,.91-1.54,6.49,6.49,0,0,1,0-1.08l0-.25"/><path class="cls-2" d="M67.3,35.52A2.28,2.28,0,0,0,66,33a3.49,3.49,0,0,1-1.36-4.32,3.71,3.71,0,0,1,3.77-2.57A3.78,3.78,0,0,1,72,28.88a3.74,3.74,0,0,1-1.85,4.39,1.57,1.57,0,0,0-1,1.78c0,.17,0,.34,0,.51"/><path class="cls-1" d="M3.23,94.7c.66,0,1.24,0,1.83,0a2.45,2.45,0,0,1,2.79,2.2c.19.73.37,1.47.59,2.19.33,1,.35,1,1.39,1H12.3c-.28-.88-.55-1.71-.81-2.54-.11-.35-.19-.71-.27-1.07a3.93,3.93,0,0,0-1.74-2.72l.63-.36a3.76,3.76,0,0,0,1.82-3.55,3.59,3.59,0,0,0-2.08-3.38,7.3,7.3,0,0,0-3.29-.64H.49l-.49,0v14.18H3.23Z"/><path class="cls-1" d="M79.44,89.76l.87,2.72,2.25,7.13c.08.24.1.52.5.51.89,0,1.79,0,2.68,0a.5.5,0,0,0,.37-.29c.48-1.7,1-3.4,1.41-5.11.17-.65.25-1.33.38-2l.1.11c.56,2.31,1.12,4.61,1.67,6.92a.47.47,0,0,0,.56.42c.76,0,1.52,0,2.28,0a.65.65,0,0,0,.77-.56c.62-2,1.28-4.08,1.92-6.12.38-1.22.76-2.44,1.15-3.67H93.43c-.35,1.32-.7,2.6-1,3.89s-.63,2.57-.92,3.74c-.64-2.47-1.3-5.05-2-7.63H86.42l-1.76,7.68c-.64-2.49-1.32-5.1-2-7.69Z"/><path class="cls-1" d="M42.78,95.12c.09.15.16.24.22.34.68,1.22,1.42,2.41,2,3.67a1.48,1.48,0,0,0,1.7,1,21.39,21.39,0,0,1,2.27,0c-.1-.22-.15-.34-.21-.46-1.13-1.94-2.23-3.89-3.39-5.81a.64.64,0,0,1,.16-1c1-.92,2-1.88,3-2.83a2.66,2.66,0,0,0,.23-.28c-1,0-1.87,0-2.76,0a1.27,1.27,0,0,0-.75.29c-1,.88-2,1.81-3,2.72l-1,.87v-8H38.15v14.44c.93,0,1.82,0,2.71,0,.36,0,.5-.09.49-.48,0-.94,0-1.89,0-2.83a.76.76,0,0,1,.13-.46C41.88,95.92,42.32,95.54,42.78,95.12Z"/><path class="cls-1" d="M59.2,92.15H53.67V88.48h6.87v-2.6H50.42v14.2h3.23V94.7H59.2Z"/><path class="cls-1" d="M20.47,99.05a2.81,2.81,0,0,0,3.85,1,.47.47,0,0,0,.22-.34c0-.61-.11-1.21-.17-1.81-.79.15-1,0-1-.73,0-.15,0-.3,0-.46,0-1.13,0-2.26,0-3.39a3.26,3.26,0,0,0-1.84-3.14,6.18,6.18,0,0,0-6.14.26A2.85,2.85,0,0,0,14,93l2.67.17a.45.45,0,0,0,0-.13,1.4,1.4,0,0,1,1.44-1.43c1.11-.08,1.74.29,1.91,1.21a12.12,12.12,0,0,1,.13,1.52l-.33-.05a7.42,7.42,0,0,0-4.47.25,3,3,0,0,0-2,3.08,2.87,2.87,0,0,0,2.31,2.62A4.65,4.65,0,0,0,20.47,99.05Z"/><path class="cls-1" d="M73.13,89.54a5.45,5.45,0,0,0-.7,0,5.09,5.09,0,0,0-4.6,3.35A5.32,5.32,0,0,0,69,98.76a5.63,5.63,0,0,0,4.67,1.61,5.38,5.38,0,0,0,4.73-7.72C77.38,90.42,75.48,89.56,73.13,89.54Z"/><path class="cls-1" d="M36.2,93.86a4,4,0,0,0-1-2.6,5.26,5.26,0,0,0-4.5-1.74,5,5,0,0,0-4.64,3,5.5,5.5,0,0,0,.47,5.76c1.34,1.87,3.29,2.34,5.47,2.08a4.8,4.8,0,0,0,3.22-1.72,4,4,0,0,0,1-2.56l-3-.32c0,.12,0,.18,0,.24a1.91,1.91,0,0,1-1.42,2,2.28,2.28,0,0,1-2.5-.88,4.3,4.3,0,0,1,0-4.28,2.26,2.26,0,0,1,2.39-.95,2,2,0,0,1,1.54,1.62,6.37,6.37,0,0,1,.06.68Z"/><path class="cls-1" d="M65.43,100.09V85.68H62.32v14.41Z"/><path d="M3.23,94.7v5.36H0V85.88l.49,0H6.56a7.3,7.3,0,0,1,3.29.64,3.59,3.59,0,0,1,2.08,3.38,3.76,3.76,0,0,1-1.82,3.55l-.63.36a3.93,3.93,0,0,1,1.74,2.72c.08.36.16.72.27,1.07.26.83.53,1.66.81,2.54H9.83c-1,0-1.06,0-1.39-1-.22-.72-.4-1.46-.59-2.19a2.45,2.45,0,0,0-2.79-2.2C4.47,94.69,3.89,94.7,3.23,94.7Zm0-2.33c1.23,0,2.41.09,3.58,0a2,2,0,0,0,0-3.92,31.33,31.33,0,0,0-3.63,0Z"/><path d="M79.44,89.76h3.23c.67,2.59,1.35,5.2,2,7.69l1.76-7.68h3.09c.66,2.58,1.32,5.16,2,7.63.29-1.17.59-2.46.92-3.74s.69-2.57,1-3.89h2.92C96,91,95.58,92.22,95.2,93.44c-.64,2-1.3,4.07-1.92,6.12a.65.65,0,0,1-.77.56c-.76,0-1.52,0-2.28,0a.47.47,0,0,1-.56-.42c-.55-2.31-1.11-4.61-1.67-6.92l-.1-.11c-.13.7-.21,1.38-.38,2-.45,1.71-.93,3.41-1.41,5.11a.5.5,0,0,1-.37.29c-.89,0-1.79,0-2.68,0-.4,0-.42-.27-.5-.51l-2.25-7.13Z"/><path d="M42.78,95.12c-.46.42-.9.8-1.31,1.22a.76.76,0,0,0-.13.46c0,.94,0,1.89,0,2.83,0,.39-.13.49-.49.48-.89,0-1.78,0-2.71,0V85.67h3.19v8l1-.87c1-.91,2-1.84,3-2.72a1.27,1.27,0,0,1,.75-.29c.89,0,1.79,0,2.76,0a2.66,2.66,0,0,1-.23.28c-1,1-2,1.91-3,2.83a.64.64,0,0,0-.16,1c1.16,1.92,2.26,3.87,3.39,5.81.06.12.11.24.21.46a21.39,21.39,0,0,0-2.27,0,1.48,1.48,0,0,1-1.7-1c-.61-1.26-1.35-2.45-2-3.67C42.94,95.36,42.87,95.27,42.78,95.12Z"/><path d="M59.2,92.15V94.7H53.65v5.38H50.42V85.88H60.54v2.6H53.67v3.67Z"/><path d="M20.47,99.05a4.65,4.65,0,0,1-4.75,1.14,2.87,2.87,0,0,1-2.31-2.62,3,3,0,0,1,2-3.08,7.42,7.42,0,0,1,4.47-.25l.33.05a12.12,12.12,0,0,0-.13-1.52c-.17-.92-.8-1.29-1.91-1.21A1.4,1.4,0,0,0,16.74,93a.45.45,0,0,1,0,.13L14,93a2.85,2.85,0,0,1,1.37-2.54,6.18,6.18,0,0,1,6.14-.26,3.26,3.26,0,0,1,1.84,3.14c0,1.13,0,2.26,0,3.39,0,.16,0,.31,0,.46,0,.73.2.88,1,.73.06.6.13,1.2.17,1.81a.47.47,0,0,1-.22.34A2.81,2.81,0,0,1,20.47,99.05Zm-2-3.38-.05-.09a7.16,7.16,0,0,0-1.47.54,1.22,1.22,0,0,0,0,2,2.21,2.21,0,0,0,3.23-1.3c.13-.72.06-.84-.67-1A9,9,0,0,0,18.5,95.67Z"/><path d="M73.13,89.54c2.35,0,4.25.88,5.22,3.11a5.38,5.38,0,0,1-4.73,7.72A5.63,5.63,0,0,1,69,98.76a5.32,5.32,0,0,1-1.12-5.87,5.09,5.09,0,0,1,4.6-3.35A5.45,5.45,0,0,1,73.13,89.54Zm0,2.29a2.16,2.16,0,0,0-2,1.22,3.91,3.91,0,0,0,0,3.82A2.27,2.27,0,0,0,75,97.1,4,4,0,0,0,75,92.73,2.19,2.19,0,0,0,73.13,91.83Z"/><path d="M36.2,93.86l-2.93.31a6.37,6.37,0,0,0-.06-.68,2,2,0,0,0-1.54-1.62,2.26,2.26,0,0,0-2.39.95,4.3,4.3,0,0,0,0,4.28,2.28,2.28,0,0,0,2.5.88,1.91,1.91,0,0,0,1.42-2c0-.06,0-.12,0-.24l3,.32a4,4,0,0,1-1,2.56A4.8,4.8,0,0,1,32,100.32c-2.18.26-4.13-.21-5.47-2.08a5.5,5.5,0,0,1-.47-5.76,5,5,0,0,1,4.64-3,5.26,5.26,0,0,1,4.5,1.74A4,4,0,0,1,36.2,93.86Z"/><path d="M65.43,100.09H62.32V85.68h3.11Z"/><path class="cls-1" d="M3.25,92.37v-4a31.33,31.33,0,0,1,3.63,0,2,2,0,0,1,0,3.92C5.66,92.46,4.48,92.37,3.25,92.37Z"/><path class="cls-1" d="M18.5,95.67a9,9,0,0,1,1,.15c.73.15.8.27.67,1A2.21,2.21,0,0,1,17,98.11a1.22,1.22,0,0,1,0-2,7.16,7.16,0,0,1,1.47-.54Z"/><path class="cls-1" d="M73.13,91.84a2.16,2.16,0,0,1,1.83.89A4,4,0,0,1,75,97.1a2.27,2.27,0,0,1-3.87-.23,3.91,3.91,0,0,1,0-3.82A2.14,2.14,0,0,1,73.13,91.84Z"/></g></g></svg>