<svg xmlns="http://www.w3.org/2000/svg" viewBox="0 0 71.89 71.93"><defs><style>.cls-1{fill:#fff;}.cls-2{fill:#e84343;}</style></defs><title>Asset 3</title><g id="Layer_2" data-name="Layer 2"><g id="Layer_1-2" data-name="Layer 1"><path class="cls-1" d="M31.91,50c0-1.26,0-2.53,0-3.8A5.89,5.89,0,0,0,25.63,40H6.32A6.32,6.32,0,0,0,5,40.07c-3.24.67-5,3-5,6.63q0,9.16,0,18.35a12.44,12.44,0,0,0,.19,2c.43,2.4,3,4.86,5.15,4.86,2.59,0,5.17-.09,7.76-.1,4.29,0,8.58,0,12.88,0a5.79,5.79,0,0,0,5.81-4.89,41.49,41.49,0,0,0,0-5.11H28c0,1.21,0,2.45,0,3.68a2.14,2.14,0,0,1-2.45,2.41q-9.54,0-19.07,0C4.75,67.91,4,67.17,4,65.43V46.36c0-1.76.7-2.44,2.49-2.44H25.57c1.7,0,2.4.68,2.45,2.38,0,1.23,0,2.46,0,3.66Z"/><path class="cls-1" d="M31.91,10c0-1.13-.06-2.29,0-3.44.25-4-2.75-6.64-6.54-6.59C19.15.09,12.91,0,6.67,0,2.45,0,0,2.43,0,6.66c0,6.2,0,12.4,0,18.6,0,4.3,2.45,6.65,6.75,6.64l19.32-.08a5.47,5.47,0,0,0,5.6-4.47,33.48,33.48,0,0,0,.06-5.48H28.15s-.08.09-.08.15c0,1.12,0,2.24,0,3.36,0,1.86-.68,2.58-2.52,2.59q-9.48,0-19,0C4.63,28,4,27.27,4,25.31V6.48c0-1.8.74-2.55,2.55-2.55q9.42,0,18.84,0c1.88,0,2.61.72,2.64,2.6,0,1.19,0,2.38,0,3.5Z"/><path class="cls-1" d="M40,61.82c0,1.35,0,2.7,0,4.05A5.9,5.9,0,0,0,46,71.82c1.43,0,2.87,0,4.3,0h16a4.43,4.43,0,0,0,2.09-.47,5.9,5.9,0,0,0,3.53-5.55q0-9.94,0-19.91a5.64,5.64,0,0,0-3-5.14c-2.25-1.27-4.69-.7-7-.74v3.91c1.23,0,2.42,0,3.61,0,1.81,0,2.48.67,2.48,2.45v19c0,1.84-.69,2.57-2.51,2.58q-9.54,0-19.07,0c-1.65,0-2.4-.79-2.42-2.45,0-1.23,0-2.46,0-3.64Z"/><path class="cls-1" d="M62,31.78c1.34,0,2.57,0,3.8,0a5.67,5.67,0,0,0,6-6q0-9.84,0-19.67a5.7,5.7,0,0,0-5.86-6Q56,0,46.11.12a5.67,5.67,0,0,0-5.94,5,40,40,0,0,0,0,4.9c.67,0,1.26-.15,1.85-.14s1.17.09,1.87.16V6.65c0-2.05.74-2.79,2.83-2.79H65.27c2,0,2.72.74,2.72,2.76V25.09c0,2.33-.64,3-3,3H62Z"/><path class="cls-1" d="M41.66,59.84a4,4,0,0,0,4.17-3.22,3.9,3.9,0,0,0-2.47-4.42A3.8,3.8,0,0,0,38.54,54a1.5,1.5,0,0,1-1.66,1,7.7,7.7,0,0,0-1.44,0,1.87,1.87,0,0,1-2.16-1.16,3.71,3.71,0,0,0-4.34-1.69A3.84,3.84,0,0,0,26,55.76a3.91,3.91,0,0,0,2.65,3.87,3.64,3.64,0,0,0,4.5-1.52,2.25,2.25,0,0,1,2.65-1.36,7.88,7.88,0,0,0,1.19,0,1.21,1.21,0,0,1,1.37.84A3.65,3.65,0,0,0,41.66,59.84Z"/><path class="cls-1" d="M52,41.64a4,4,0,0,0,7.66,1.69A3.78,3.78,0,0,0,58,38.57a1.81,1.81,0,0,1-1.18-2.12,4.31,4.31,0,0,0,0-1A2,2,0,0,1,58,33.15a3.63,3.63,0,0,0,1.64-4.36,4,4,0,0,0-3.57-2.74,3.88,3.88,0,0,0-3.79,2.6,3.48,3.48,0,0,0,1.28,4.25A2.58,2.58,0,0,1,55,35.82a4.87,4.87,0,0,0,0,1.08A1.38,1.38,0,0,1,54,38.48,3.58,3.58,0,0,0,52,41.64Z"/><path class="cls-1" d="M45.8,16a3.72,3.72,0,0,0-2.61-3.74,3.5,3.5,0,0,0-4.31,1.41,2.36,2.36,0,0,1-2.77,1.35,6.49,6.49,0,0,0-1.08,0,1.31,1.31,0,0,1-1.55-.9,3.87,3.87,0,0,0-4.43-2,4,4,0,0,0-.25,7.62,3.72,3.72,0,0,0,4.46-1.66,2,2,0,0,1,2.28-1.18,8.19,8.19,0,0,0,1.31,0,1.57,1.57,0,0,1,1.79,1,3.73,3.73,0,0,0,4.41,1.81A3.8,3.8,0,0,0,45.8,16Z"/><path class="cls-1" d="M50,40c-1.58,0-3.13-.08-4.68,0-1,.07-2.21.12-2.79.72a8.8,8.8,0,0,0-2.26,3.76A28.73,28.73,0,0,0,40,50h4c0-1.23,0-2.46,0-3.69,0-1.63.72-2.33,2.33-2.37,1.27,0,2.53,0,3.76,0Z"/><path class="cls-1" d="M49.93,31.64V28.11c-.58,0-1.17,0-1.76,0s-1.28,0-1.91-.06c-1.74-.15-2.41-.87-2.43-2.61,0-1.15,0-2.3,0-3.45H40.21C39.22,30.08,42.31,32.62,49.93,31.64Z"/><path d="M31.91,50H28c0-1.2,0-2.43,0-3.66-.05-1.7-.75-2.38-2.45-2.38H6.5C4.71,43.92,4,44.6,4,46.36V65.43c0,1.74.74,2.48,2.49,2.48q9.54,0,19.07,0A2.14,2.14,0,0,0,28,65.5c0-1.23,0-2.47,0-3.68h3.82a41.49,41.49,0,0,1,0,5.11A5.79,5.79,0,0,1,26,71.82c-4.3,0-8.59,0-12.88,0-2.59,0-5.17.09-7.76.1-2.13,0-4.72-2.46-5.15-4.86a12.44,12.44,0,0,1-.19-2Q0,55.87,0,46.7c0-3.68,1.75-6,5-6.63A6.32,6.32,0,0,1,6.32,40H25.63a5.89,5.89,0,0,1,6.27,6.2C31.92,47.43,31.91,48.7,31.91,50Z"/><path d="M31.91,10H28.05c0-1.12,0-2.31,0-3.5,0-1.88-.76-2.6-2.64-2.6q-9.42,0-18.84,0C4.75,3.93,4,4.68,4,6.48V25.31c0,2,.62,2.65,2.54,2.65q9.48,0,19,0c1.84,0,2.5-.73,2.52-2.59,0-1.12,0-2.24,0-3.36,0-.06.07-.13.08-.15h3.61a33.48,33.48,0,0,1-.06,5.48,5.47,5.47,0,0,1-5.6,4.47L6.78,31.9c-4.3,0-6.73-2.34-6.75-6.64,0-6.2,0-12.4,0-18.6C0,2.43,2.45,0,6.67,0c6.24,0,12.48.06,18.71,0,3.79,0,6.79,2.59,6.54,6.59C31.85,7.74,31.91,8.9,31.91,10Z"/><path d="M40,61.82h3.9c0,1.18,0,2.41,0,3.64,0,1.66.77,2.45,2.42,2.45q9.54,0,19.07,0c1.82,0,2.51-.74,2.51-2.58v-19c0-1.78-.67-2.43-2.48-2.45-1.19,0-2.38,0-3.61,0V40c2.35,0,4.79-.53,7,.74a5.64,5.64,0,0,1,3,5.14q.06,10,0,19.91a5.9,5.9,0,0,1-3.53,5.55,4.43,4.43,0,0,1-2.09.47h-16c-1.43,0-2.87,0-4.3,0A5.9,5.9,0,0,1,40,65.87C40,64.52,40,63.17,40,61.82Z"/><path class="cls-2" d="M62,31.78V28.1h3c2.35,0,3-.68,3-3V6.62c0-2-.72-2.76-2.72-2.76H46.68c-2.09,0-2.83.74-2.83,2.79V10c-.7-.07-1.29-.16-1.87-.16S40.8,10,40.13,10a40,40,0,0,1,0-4.9,5.67,5.67,0,0,1,5.94-5Q56,0,65.89.12a5.7,5.7,0,0,1,5.86,6q0,9.84,0,19.67a5.67,5.67,0,0,1-6,6C64.52,31.8,63.29,31.78,62,31.78Z"/><path d="M41.66,59.84a3.65,3.65,0,0,1-3.26-2.25A1.21,1.21,0,0,0,37,56.75a7.88,7.88,0,0,1-1.19,0,2.25,2.25,0,0,0-2.65,1.36,3.64,3.64,0,0,1-4.5,1.52A3.91,3.91,0,0,1,26,55.76a3.84,3.84,0,0,1,2.9-3.66,3.71,3.71,0,0,1,4.34,1.69A1.87,1.87,0,0,0,35.44,55a7.7,7.7,0,0,1,1.44,0,1.5,1.5,0,0,0,1.66-1,3.8,3.8,0,0,1,4.82-1.77,3.9,3.9,0,0,1,2.47,4.42A4,4,0,0,1,41.66,59.84Z"/><path d="M36.34,16.92a7.06,7.06,0,0,1-.8,0,2,2,0,0,0-2.28,1.18,3.72,3.72,0,0,1-4.46,1.66,4,4,0,0,1,.25-7.62,3.87,3.87,0,0,1,4.43,2,1.31,1.31,0,0,0,1.55.9,6.49,6.49,0,0,1,1.08,0l.25,0"/><path class="cls-2" d="M36.36,15.08a2.27,2.27,0,0,0,2.52-1.37,3.5,3.5,0,0,1,4.31-1.41A3.72,3.72,0,0,1,45.8,16a3.8,3.8,0,0,1-2.75,3.65,3.73,3.73,0,0,1-4.41-1.81,1.57,1.57,0,0,0-1.79-1l-.51,0"/><path d="M50,40v3.93c-1.23,0-2.49,0-3.76,0-1.61,0-2.3.74-2.33,2.37,0,1.23,0,2.46,0,3.69H40a28.73,28.73,0,0,1,.32-5.49,8.8,8.8,0,0,1,2.26-3.76c.58-.6,1.83-.65,2.79-.72C46.88,39.9,48.43,40,50,40Z"/><path d="M49.93,31.64c-7.62,1-10.71-1.56-9.72-9.65h3.62c0,1.15,0,2.3,0,3.45,0,1.74.69,2.46,2.43,2.61.63.06,1.27.05,1.91.06s1.18,0,1.76,0Z"/><path d="M56.91,35.56a7,7,0,0,1,0,.8A2,2,0,0,0,58,38.65a3.72,3.72,0,0,1,1.61,4.48,3.92,3.92,0,0,1-4,2.72A4,4,0,0,1,52,42.8a3.87,3.87,0,0,1,2.1-4.41A1.31,1.31,0,0,0,55,36.85a6.49,6.49,0,0,1,0-1.08l0-.25"/><path class="cls-2" d="M55.07,35.52A2.28,2.28,0,0,0,53.72,33a3.49,3.49,0,0,1-1.36-4.32,3.71,3.71,0,0,1,3.77-2.57,3.78,3.78,0,0,1,3.61,2.79,3.74,3.74,0,0,1-1.85,4.39,1.58,1.58,0,0,0-1,1.78c0,.17,0,.34,0,.51"/></g></g></svg>